<?xml version="1.0" standalone="no"?>
<!DOCTYPE svg PUBLIC "-//W3C//DTD SVG 1.1//EN" "http://www.w3.org/Graphics/SVG/1.1/DTD/svg11.dtd" >
<svg xmlns="http://www.w3.org/2000/svg">
<metadata>Generated by IcoMoon</metadata>
<defs>
<font id="ncicons" horiz-adv-x="1024">
<font-face units-per-em="1024" ascent="960" descent="-64" />
<missing-glyph horiz-adv-x="1024" />
<glyph unicode="&#x20;" horiz-adv-x="512" d="" />
<glyph unicode="&#xe708;" glyph-name="download" horiz-adv-x="843" d="M843.288 598.577h-240.819v361.423h-361.651v-361.423h-240.819l421.66-421.628zM0 56.474v-120.409h843.288v120.409z" />
<glyph unicode="&#xe901;" glyph-name="arrow-back" horiz-adv-x="593" d="M511.999 960l80.836-81.92-430.080-430.080 430.080-430.080-80.836-81.92-512 512z" />
<glyph unicode="&#xe902;" glyph-name="arrow-forward" horiz-adv-x="593" d="M80.835-64l-80.835 81.92 430.080 430.080-430.080 430.080 80.835 81.92 512-512z" />
<glyph unicode="&#xe903;" glyph-name="close" d="M99.2 959.999l924.794-924.794-99.185-99.185-924.794 924.794 99.185 99.185zM924.821 959.999l99.191-99.191-924.783-924.783-99.191 99.191 924.783 924.783z" />
<glyph unicode="&#xe904;" glyph-name="tiktok" d="M534.613 959.147c55.893 0.853 111.36 0.427 166.827 0.853 3.413-65.28 26.88-131.84 74.667-177.92 47.787-47.36 115.2-69.12 180.907-76.373v-171.947c-61.44 2.133-123.307 14.933-179.2 41.387-24.32 11.093-46.933 25.173-69.12 39.68-0.427-124.587 0.427-249.173-0.853-373.333-3.413-59.733-23.040-119.040-57.6-168.107-55.893-81.92-152.747-135.253-252.16-136.96-61.013-3.413-122.027 13.227-174.080 43.947-86.187 50.773-146.773 143.787-155.733 243.627-0.853 21.333-1.28 42.667-0.427 63.573 7.68 81.067 47.787 158.72 110.080 211.627 70.827 61.44 169.813 90.88 262.4 73.387 0.853-63.147-1.707-126.293-1.707-189.44-42.24 13.653-91.733 9.813-128.853-15.787-26.88-17.493-47.36-44.373-58.027-74.667-8.96-21.76-6.4-45.653-5.973-68.693 10.24-69.973 77.653-128.853 149.333-122.453 47.787 0.427 93.44 28.16 118.187 68.693 8.107 14.080 17.067 28.587 17.493 45.227 4.267 76.373 2.56 152.32 2.987 228.693 0.427 171.947-0.427 343.467 0.853 514.987z" />
<glyph unicode="&#xe905;" glyph-name="arrow2-right" d="M512 896.001l-78.96-78.96 312.48-313.039h-681.521v-112.001h681.521l-312.48-313.039 78.96-78.96 448.001 448.001-448.001 448.001z" />
<glyph unicode="&#xe906;" glyph-name="envelope, mail, email, contact" d="M941.331 816h-858.665c-33.869 0-61.333-27.431-61.333-61.333v-613.333c0-33.902 27.464-61.333 61.333-61.333h858.665c33.871 0 61.335 27.431 61.335 61.333v613.333c0 33.902-27.464 61.333-61.335 61.333zM818.667 693.333l-306.667-245.333-306.667 245.333h613.333zM880 202.667h-736v429.333l368-306.667 368 306.667v-429.333z" />
<glyph unicode="&#xe907;" glyph-name="menu" horiz-adv-x="1355" d="M0-64h1355.034v170.693h-1355.034zM0 362.68h1355.034v170.64h-1355.034zM0 960v-170.64h1355.034v170.64z" />
<glyph unicode="&#xe908;" glyph-name="user" d="M512-42.667c-270.988 0-490.667 219.679-490.667 490.667s219.679 490.667 490.667 490.667v0c270.988 0 490.667-219.679 490.667-490.667s-219.679-490.667-490.667-490.667v0zM364.8 644.267v-98.133c0-81.296 65.904-147.2 147.2-147.2s147.2 65.904 147.2 147.2v0 98.133c0 81.296-65.904 147.2-147.2 147.2s-147.2-65.904-147.2-147.2v0zM185.707 230.144c71.435-105.73 190.854-174.325 326.293-174.325s254.857 68.595 325.41 172.938l0.884 1.387c-95.747 45.031-207.951 71.314-326.293 71.314s-230.545-26.283-331.091-73.331l4.797 2.016z" />
<glyph unicode="&#xe909;" glyph-name="dots" d="M512 320.004c-70.691 0-127.996 57.305-127.996 127.996s57.305 127.996 127.996 127.996v0c70.691 0 127.996-57.305 127.996-127.996s-57.305-127.996-127.996-127.996v0zM512 703.992c-70.691 0-127.996 57.305-127.996 127.996s57.305 127.996 127.996 127.996v0c70.691 0 127.996-57.305 127.996-127.996s-57.305-127.996-127.996-127.996v0zM512-63.984c-70.691 0-127.996 57.305-127.996 127.996s57.305 127.996 127.996 127.996v0c70.691 0 127.996-57.305 127.996-127.996s-57.305-127.996-127.996-127.996v0z" />
<glyph unicode="&#xe90a;" glyph-name="play-circle" d="M512 960c-282.77 0-512-229.23-512-512s229.23-512 512-512c282.77 0 512 229.23 512 512v0c0 0.038 0 0.082 0 0.125 0 282.7-229.174 511.875-511.875 511.875-0.044 0-0.089 0-0.133 0h0.007zM750.841 398.437l-363.375-208.539c-6.958-3.948-15.284-6.275-24.154-6.275-27.407 0-49.625 22.218-49.625 49.625 0 0.022 0 0.045 0 0.067v-0.004 429.375c0.080 27.382 22.295 49.548 49.688 49.548 8.818 0 17.1-2.297 24.279-6.325l-0.25 0.129 363.375-220.898c15.29-8.669 25.439-24.834 25.439-43.369 0-18.51-10.121-34.656-25.131-43.206l-0.245-0.128z" />
<glyph unicode="&#xe90b;" glyph-name="chat, bubble, comment, talk" d="M52.703 269.99c0-43.71 35.404-79.116 79.116-79.116h118.672v-122.034c0-21.954 17.8-39.557 39.557-39.557 11.096 0 21.144 4.548 28.284 11.868l149.726 149.724h435.134c43.71 0 79.116 35.404 79.116 79.116l-0.002 494.47c0 43.71-35.404 79.116-79.116 79.116l-771.372-0.002c-43.712 0-79.116-35.404-79.116-79.114v-494.47zM290.049 497.448c0 27.294 22.152 49.448 49.448 49.448s49.448-22.152 49.448-49.448-22.152-49.448-49.448-49.448-49.448 22.152-49.448 49.448zM468.059 497.448c0 27.294 22.152 49.448 49.448 49.448s49.448-22.152 49.448-49.448-22.152-49.448-49.448-49.448-49.448 22.152-49.448 49.448zM646.067 497.448c0 27.294 22.152 49.448 49.448 49.448s49.448-22.152 49.448-49.448-22.152-49.448-49.448-49.448-49.448 22.152-49.448 49.448z" />
<glyph unicode="&#xe90c;" glyph-name="search" d="M1009.883 74.682l-199.515 199.515c-8.674 8.653-20.647 14.004-33.869 14.004-0.004 0-0.008 0-0.012 0h-32.599c54.871 69.79 88.002 158.927 88.002 255.803 0 229.63-186.152 415.781-415.781 415.781s-415.781-186.152-415.781-415.781c0-229.63 186.152-415.781 415.781-415.781 96.876 0 186.013 33.131 256.699 88.681l-0.896-0.679v-32.6c0-0.003 0-0.007 0-0.011 0-13.222 5.351-25.194 14.005-33.87l199.514-199.514c8.659-8.696 20.641-14.077 33.88-14.077s25.221 5.381 33.878 14.076l56.468 56.468c8.731 8.727 14.132 20.786 14.132 34.106 0 13.208-5.31 25.175-13.911 33.884l0.005-0.005zM415.969 288.087c-141.375 0-255.981 114.607-255.981 255.981s114.607 255.981 255.981 255.981c141.375 0 255.981-114.607 255.981-255.981v0c0-141.375-114.607-255.981-255.981-255.981v0z" />
<glyph unicode="&#xe90d;" glyph-name="pinterest" horiz-adv-x="731" d="M0 582.286c0 210.857 193.143 341.143 388.571 341.143 179.429 0 342.857-123.429 342.857-312.571 0-177.714-90.857-374.857-293.143-374.857-48 0-108.571 24-132 68.571-43.429-172-40-197.714-136-329.143l-8-2.857-5.143 5.714c-3.429 36-8.571 71.429-8.571 107.429 0 116.571 53.714 285.143 80 398.286-14.286 29.143-18.286 64.571-18.286 96.571 0 57.714 40 130.857 105.143 130.857 48 0 73.714-36.571 73.714-81.714 0-74.286-50.286-144-50.286-216 0-49.143 40.571-83.429 88-83.429 131.429 0 172 189.714 172 290.857 0 135.429-96 209.143-225.714 209.143-150.857 0-267.429-108.571-267.429-261.714 0-73.714 45.143-111.429 45.143-129.143 0-14.857-10.857-67.429-29.714-67.429-2.857 0-6.857 1.143-9.714 1.714-81.714 24.571-111.429 133.714-111.429 208.571z" />
<glyph unicode="&#xe90e;" glyph-name="get-pocket" horiz-adv-x="983" d="M894.286 886.857c49.714 0 88.571-40 88.571-89.143v-296.571c0-273.714-218.857-492-490.857-492-273.143 0-492 218.286-492 492v296.571c0 48.571 40.571 89.143 89.143 89.143h805.143zM492 278.857c17.143 0 34.286 6.857 46.857 18.857l230.857 221.714c13.143 12.571 21.143 30.286 21.143 48.571 0 37.143-30.286 67.429-67.429 67.429-17.714 0-34.286-6.857-46.857-18.857l-184.571-177.143-184.571 177.143c-12.571 12-29.143 18.857-46.286 18.857-37.143 0-67.429-30.286-67.429-67.429 0-18.286 7.429-36 20.571-48.571l231.429-221.714c12-12 29.143-18.857 46.286-18.857z" />
<glyph unicode="&#xe90f;" glyph-name="quotes" horiz-adv-x="1318" d="M1266.159 960v-75.134c-102.45-35.708-187.614-99.351-248.894-181.801l-0.986-1.388c-55.158-71.258-88.929-161.514-90.403-259.598l-0.004-0.337c-0.127-1.677-0.2-3.632-0.2-5.604 0-13.674 3.484-26.534 9.611-37.741l-0.206 0.411c2.669-5.151 7.762-8.719 13.728-9.202l0.060-0.004c8.884 1.555 16.691 5.354 23.061 10.789l-0.067-0.056c32.521 22.182 72.682 35.418 115.936 35.418 2.898 0 5.782-0.059 8.652-0.177l-0.411 0.013c61.705-0.58 116.902-27.955 154.6-71.032l0.207-0.241c41.711-42.834 67.434-101.415 67.434-166.004 0-1.135-0.008-2.268-0.024-3.399l0.002 0.172c0-0.069 0-0.151 0-0.232 0-71.034-29.685-135.134-77.326-180.572l-0.099-0.094c-46.394-48.249-111.49-78.223-183.586-78.223-1.471 0-2.94 0.012-4.405 0.037l0.221-0.003c-89.423 0.153-169.247 41.119-221.86 105.26l-0.402 0.505c-58.444 70.677-93.897 162.231-93.897 262.066 0 7.577 0.204 15.107 0.607 22.584l-0.045-1.042c-0.013 1.485-0.021 3.241-0.021 4.999 0 138.81 47.961 266.418 128.215 367.157l-0.92-1.196q126.849 164.056 401.421 263.668zM528.821 960v-75.134c-102.479-35.682-187.673-99.313-248.98-181.761l-0.985-1.386c-55.136-71.277-88.88-161.551-90.318-259.648l-0.004-0.329c-0.127-1.677-0.2-3.632-0.2-5.604 0-13.674 3.484-26.534 9.611-37.741l-0.206 0.411c2.669-5.151 7.762-8.719 13.728-9.202l0.060-0.004c8.884 1.555 16.691 5.354 23.061 10.789l-0.067-0.056c32.521 22.182 72.682 35.418 115.936 35.418 2.898 0 5.782-0.059 8.652-0.177l-0.411 0.013c61.705-0.58 116.902-27.955 154.6-71.032l0.207-0.241c41.737-42.839 67.479-101.438 67.479-166.049 0-1.178-0.009-2.355-0.026-3.529l0.002 0.177c0-0.067 0-0.145 0-0.224 0-70.951-29.616-134.985-77.16-180.414l-0.095-0.090c-46.394-48.249-111.49-78.223-183.586-78.223-1.471 0-2.94 0.012-4.405 0.037l0.221-0.003c-89.423 0.153-169.247 41.119-221.86 105.26l-0.402 0.505c-58.444 70.677-93.897 162.231-93.897 262.066 0 7.577 0.204 15.107 0.607 22.584l-0.045-1.042c-0.013 1.485-0.021 3.241-0.021 4.999 0 138.81 47.961 266.418 128.215 367.157l-0.92-1.196q126.849 164.056 401.251 263.668z" />
<glyph unicode="&#xe924;" glyph-name="cart" horiz-adv-x="1199" d="M42.723 806.693c-0.017 0.465-0.028 1.015-0.028 1.565 0 12.428 4.998 23.686 13.094 31.88l-0.006-0.006c8.174 8.091 19.422 13.090 31.835 13.090 0.562 0 1.125-0.009 1.681-0.029l-0.082 0.003h238.247c0.161 0.003 0.352 0.004 0.545 0.004 10.707 0 20.57-3.624 28.428-9.717l-0.104 0.080c8.259-6.296 14.226-15.227 16.658-25.524l0.062-0.306 24.327-99.302h683.002l7.117 21.289c4.436 18.763 21.041 32.515 40.856 32.515 0.952 0 1.894-0.030 2.83-0.094l-0.125 0.009c0.558 0.035 1.206 0.055 1.863 0.055 4.027 0 7.875-0.764 11.409-2.155l-0.212 0.073c10.015-2.602 18.408-8.397 24.247-16.214l0.084-0.115c5.687-7.372 9.111-16.74 9.111-26.909 0-0.161-0.001-0.321-0.003-0.484v0.026c-0.18-4.721-0.905-9.193-2.12-13.46l0.098 0.399-119.582-398.385c-2.596-10.018-8.392-18.412-16.214-24.247l-0.115-0.084c-7.4-5.687-16.799-9.11-26.994-9.11-0.129 0-0.259 0.001-0.389 0.002h-566.209c-0.137-0.002-0.295-0.003-0.458-0.003-10.809 0-20.729 3.809-28.488 10.155l0.081-0.065c-8.046 6.303-13.953 15.017-16.644 25.042l-0.076 0.332-109.457 444.233h-201.641c-0.28-0.008-0.613-0.009-0.942-0.009-12.466 0-23.765 4.987-32.012 13.080l0.009-0.009c-8.435 7.912-13.688 19.122-13.688 31.565 0 0.293 0.004 0.58 0.009 0.871l-0.001-0.045zM419.685 626.343l62.828-251.44h495.533l1.991 9.077 72.982 242.198h-633.335zM462.139 135.872c-0.007 0.364-0.009 0.79-0.009 1.223 0 25.448 10.687 48.397 27.823 64.603l0.042 0.039c16.602 16.899 39.697 27.371 65.239 27.371 0.405 0 0.807-0.003 1.207-0.009l-0.062 0.001c50.734-0.978 91.484-42.337 91.484-93.213s-40.751-92.232-91.391-93.213l-0.091-0.002c-0.351-0.006-0.766-0.009-1.18-0.009-25.524 0-48.607 10.459-65.193 27.329l-0.011 0.011c-17.098 16.257-27.732 39.176-27.732 64.577 0 0.452 0.004 0.903 0.009 1.358l-0.001-0.066zM528.003 547.318h168.202v-93.195h-147.859zM776.177 454.089l1.014 93.195h164.153l-24.327-93.195zM813.662 135.905c-0.006 0.351-0.009 0.764-0.009 1.177 0 25.467 10.703 48.434 27.853 64.647l0.043 0.040c16.602 16.899 39.697 27.371 65.239 27.371 0.405 0 0.807-0.003 1.207-0.009l-0.062 0.001c50.734-0.978 91.484-42.337 91.484-93.213s-40.751-92.232-91.391-93.213l-0.091-0.002c-0.351-0.006-0.766-0.009-1.18-0.009-25.524 0-48.607 10.459-65.193 27.329l-0.011 0.011c-17.059 16.237-27.671 39.116-27.671 64.471 0 0.478 0.005 0.956 0.009 1.432l-0.001-0.071z" />
<glyph unicode="&#xe925;" glyph-name="secured-lock" d="M928-64h-832c-17.664 0-32 14.304-32 32v512c0 17.696 14.336 32 32 32h96v128c0 176.736 143.264 320 320 320s320-143.264 320-320v-128h96c17.696 0 32-14.304 32-32v-512c0-17.696-14.304-32-32-32zM704 656c0 97.216-85.984 176-192 176s-192-78.784-192-176v-144h384v144z" />
<glyph unicode="&#xe942;" glyph-name="phone" d="M704 320c-64-64-64-128-128-128s-128 64-192 128-128 128-128 192 64 64 128 128-128 256-192 256-192-192-192-192c0-128 131.5-387.5 256-512s384-256 512-256c0 0 192 128 192 192s-192 256-256 192z" />
<glyph unicode="&#xe947;" glyph-name="location" d="M512 960c-176.732 0-320-143.268-320-320 0-320 320-704 320-704s320 384 320 704c0 176.732-143.27 320-320 320zM512 448c-106.040 0-192 85.96-192 192s85.96 192 192 192 192-85.96 192-192-85.96-192-192-192z" />
<glyph unicode="&#xe94e;" glyph-name="clock" d="M70.4 742.4c0 53.973 44.16 98.133 98.133 98.133h686.933c54.199 0 98.133-43.937 98.133-98.133v0-686.933c0-54.197-43.935-98.133-98.133-98.133v0h-686.933c-54.199 0-98.133 43.937-98.133 98.133v0 686.933zM168.533 644.267v-588.8h686.933v588.8h-686.933zM266.667 938.667h98.133v-98.133h-98.133v98.133zM659.2 938.667h98.133v-98.133h-98.133v98.133zM266.667 497.067h98.133v-98.133h-98.133v98.133zM266.667 300.8h98.133v-98.133h-98.133v98.133zM462.933 497.067h98.133v-98.133h-98.133v98.133zM462.933 300.8h98.133v-98.133h-98.133v98.133zM659.2 497.067h98.133v-98.133h-98.133v98.133zM659.2 300.8h98.133v-98.133h-98.133v98.133z" />
<glyph unicode="&#xe958;" glyph-name="mobile" d="M736 960h-448c-52.8 0-96-43.2-96-96v-832c0-52.8 43.2-96 96-96h448c52.8 0 96 43.2 96 96v832c0 52.8-43.2 96-96 96zM384 912h256v-32h-256v32zM512 0c-35.346 0-64 28.654-64 64s28.654 64 64 64 64-28.654 64-64-28.654-64-64-64zM768 192h-512v640h512v-640z" />
<glyph unicode="&#xe96a;" glyph-name="reply" d="M448 184.372v-248.372l-384 384 384 384v-253.824c446.75-10.48 427.588 303.792 313.862 509.824 280.71-303.414 221.1-789.57-313.862-775.628z" />
<glyph unicode="&#xe9cb;" glyph-name="link" d="M440.236 324.234c-13.31 0-26.616 5.076-36.77 15.23-95.134 95.136-95.134 249.934 0 345.070l192 192c46.088 46.086 107.36 71.466 172.534 71.466s126.448-25.38 172.536-71.464c95.132-95.136 95.132-249.934 0-345.070l-87.766-87.766c-20.308-20.308-53.23-20.308-73.54 0-20.306 20.306-20.306 53.232 0 73.54l87.766 87.766c54.584 54.586 54.584 143.404 0 197.99-26.442 26.442-61.6 41.004-98.996 41.004s-72.552-14.562-98.996-41.006l-192-191.998c-54.586-54.586-54.586-143.406 0-197.992 20.308-20.306 20.306-53.232 0-73.54-10.15-10.152-23.462-15.23-36.768-15.23zM256-52c-65.176 0-126.45 25.38-172.534 71.464-95.134 95.136-95.134 249.934 0 345.070l87.764 87.764c20.308 20.306 53.234 20.306 73.54 0 20.308-20.306 20.308-53.232 0-73.54l-87.764-87.764c-54.586-54.586-54.586-143.406 0-197.992 26.44-26.44 61.598-41.002 98.994-41.002s72.552 14.562 98.998 41.006l192 191.998c54.584 54.586 54.584 143.406 0 197.992-20.308 20.308-20.306 53.232 0 73.54 20.306 20.306 53.232 20.306 73.54-0.002 95.132-95.134 95.132-249.932 0.002-345.068l-192.002-192c-46.090-46.088-107.364-71.466-172.538-71.466z" />
<glyph unicode="&#xe9d2;" glyph-name="bookmark" d="M192 960v-1024l320 320 320-320v1024z" />
<glyph unicode="&#xe9d9;" glyph-name="star-full" d="M1024 562.95l-353.78 51.408-158.22 320.582-158.216-320.582-353.784-51.408 256-249.538-60.432-352.352 316.432 166.358 316.432-166.358-60.434 352.352 256.002 249.538z" />
<glyph unicode="&#xe9da;" glyph-name="heart" d="M755.188 896c-107.63 0-200.258-87.554-243.164-179-42.938 91.444-135.578 179-243.216 179-148.382 0-268.808-120.44-268.808-268.832 0-301.846 304.5-380.994 512.022-679.418 196.154 296.576 511.978 387.206 511.978 679.418 0 148.392-120.43 268.832-268.812 268.832z" />
<glyph unicode="&#xea52;" glyph-name="checkbox-checked" d="M896 960h-768c-70.4 0-128-57.6-128-128v-768c0-70.4 57.6-128 128-128h768c70.4 0 128 57.6 128 128v768c0 70.4-57.6 128-128 128zM448 165.49l-237.254 237.256 90.51 90.508 146.744-146.744 306.746 306.746 90.508-90.51-397.254-397.256z" />
<glyph unicode="&#xea53;" glyph-name="checkbox-unchecked" d="M896 960h-768c-70.4 0-128-57.6-128-128v-768c0-70.4 57.6-128 128-128h768c70.4 0 128 57.6 128 128v768c0 70.4-57.6 128-128 128zM896 64h-768v768h768v-768z" />
<glyph unicode="&#xea55;" glyph-name="radio-checked" d="M512 960c-282.77 0-512-229.23-512-512s229.23-512 512-512 512 229.23 512 512-229.23 512-512 512zM512 320c-70.692 0-128 57.306-128 128 0 70.692 57.308 128 128 128 70.694 0 128-57.308 128-128 0-70.694-57.306-128-128-128z" />
<glyph unicode="&#xea56;" glyph-name="radio-unchecked" d="M512 960c-282.77 0-512-229.23-512-512s229.23-512 512-512 512 229.23 512 512-229.23 512-512 512zM512 64c-212.078 0-384 171.922-384 384s171.922 384 384 384c212.078 0 384-171.922 384-384s-171.922-384-384-384z" />
<glyph unicode="&#xea7e;" glyph-name="new-tab" d="M195.2 764.8v-111.733l442.267-0.4-481.867-481.867 79.2-79.2 481.867 481.867 0.4-442.267h111.733v633.6c0 0-633.6 0-633.6 0z" />
<glyph unicode="&#xea90;" glyph-name="facebook" d="M608 768h160v192h-160c-123.514 0-224-100.486-224-224v-96h-128v-192h128v-512h192v512h160l32 192h-192v96c0 17.346 14.654 32 32 32z" />
<glyph unicode="&#xea92;" glyph-name="instagram" d="M512 867.8c136.8 0 153-0.6 206.8-3 50-2.2 77-10.6 95-17.6 23.8-9.2 41-20.4 58.8-38.2 18-18 29-35 38.4-58.8 7-18 15.4-45.2 17.6-95 2.4-54 3-70.2 3-206.8s-0.6-153-3-206.8c-2.2-50-10.6-77-17.6-95-9.2-23.8-20.4-41-38.2-58.8-18-18-35-29-58.8-38.4-18-7-45.2-15.4-95-17.6-54-2.4-70.2-3-206.8-3s-153 0.6-206.8 3c-50 2.2-77 10.6-95 17.6-23.8 9.2-41 20.4-58.8 38.2-18 18-29 35-38.4 58.8-7 18-15.4 45.2-17.6 95-2.4 54-3 70.2-3 206.8s0.6 153 3 206.8c2.2 50 10.6 77 17.6 95 9.2 23.8 20.4 41 38.2 58.8 18 18 35 29 58.8 38.4 18 7 45.2 15.4 95 17.6 53.8 2.4 70 3 206.8 3zM512 960c-139 0-156.4-0.6-211-3-54.4-2.4-91.8-11.2-124.2-23.8-33.8-13.2-62.4-30.6-90.8-59.2-28.6-28.4-46-57-59.2-90.6-12.6-32.6-21.4-69.8-23.8-124.2-2.4-54.8-3-72.2-3-211.2s0.6-156.4 3-211c2.4-54.4 11.2-91.8 23.8-124.2 13.2-33.8 30.6-62.4 59.2-90.8 28.4-28.4 57-46 90.6-59 32.6-12.6 69.8-21.4 124.2-23.8 54.6-2.4 72-3 211-3s156.4 0.6 211 3c54.4 2.4 91.8 11.2 124.2 23.8 33.6 13 62.2 30.6 90.6 59s46 57 59 90.6c12.6 32.6 21.4 69.8 23.8 124.2 2.4 54.6 3 72 3 211s-0.6 156.4-3 211c-2.4 54.4-11.2 91.8-23.8 124.2-12.6 34-30 62.6-58.6 91-28.4 28.4-57 46-90.6 59-32.6 12.6-69.8 21.4-124.2 23.8-54.8 2.6-72.2 3.2-211.2 3.2v0zM512 711c-145.2 0-263-117.8-263-263s117.8-263 263-263 263 117.8 263 263c0 145.2-117.8 263-263 263zM512 277.4c-94.2 0-170.6 76.4-170.6 170.6s76.4 170.6 170.6 170.6c94.2 0 170.6-76.4 170.6-170.6s-76.4-170.6-170.6-170.6zM846.8 721.4c0-33.91-27.49-61.4-61.4-61.4s-61.4 27.49-61.4 61.4c0 33.91 27.49 61.4 61.4 61.4s61.4-27.49 61.4-61.4z" />
<glyph unicode="&#xea96;" glyph-name="twitter" d="M778.411 864h141.141l-308.352-352.427 362.752-479.573h-284.032l-222.464 290.859-254.549-290.859h-141.227l329.813 376.96-347.989 455.040h291.243l201.088-265.856zM728.875 116.48h78.208l-504.832 667.477h-83.925z" />
<glyph unicode="&#xea9b;" glyph-name="rss" d="M136.294 209.070c-75.196 0-136.292-61.334-136.292-136.076 0-75.154 61.1-135.802 136.292-135.802 75.466 0 136.494 60.648 136.494 135.802-0.002 74.742-61.024 136.076-136.494 136.076zM0.156 612.070v-196.258c127.784 0 247.958-49.972 338.458-140.512 90.384-90.318 140.282-211.036 140.282-339.3h197.122c-0.002 372.82-303.282 676.070-675.862 676.070zM0.388 960v-196.356c455.782 0 826.756-371.334 826.756-827.644h196.856c0 564.47-459.254 1024-1023.612 1024z" />
<glyph unicode="&#xea9d;" glyph-name="youtube" d="M984.072 640.668c0 0-9.408 66.418-38.383 95.581-36.69 38.383-77.707 38.571-96.522 40.829-134.717 9.784-336.979 9.784-336.979 9.784h-0.376c0 0-202.262 0-336.979-9.784-18.815-2.258-59.832-2.446-96.522-40.829-28.975-29.164-38.195-95.581-38.195-95.581s-9.596-77.895-9.596-155.978v-73.003c0-77.895 9.596-155.978 9.596-155.978s9.408-66.418 38.195-95.581c36.69-38.383 84.857-37.066 106.306-41.205 77.142-7.338 327.573-9.596 327.573-9.596s202.452 0.376 337.167 9.972c18.815 2.258 59.832 2.446 96.522 40.829 28.975 29.164 38.383 95.581 38.383 95.581s9.596 77.895 9.596 155.978v73.003c-0.188 77.895-9.784 155.978-9.784 155.978zM412.469 323.067v270.751l260.213-135.846-260.213-134.905z" />
<glyph unicode="&#xeac6;" glyph-name="reddit" d="M256 320c0 35.346 28.654 64 64 64s64-28.654 64-64c0-35.346-28.654-64-64-64s-64 28.654-64 64zM640 320c0 35.346 28.654 64 64 64s64-28.654 64-64c0-35.346-28.654-64-64-64s-64 28.654-64 64zM643.112 183.222c16.482 12.986 40.376 10.154 53.364-6.332s10.152-40.378-6.334-53.366c-45.896-36.158-115.822-59.524-178.142-59.524-62.322 0-132.248 23.366-178.144 59.522-16.486 12.99-19.32 36.882-6.332 53.368 12.99 16.482 36.882 19.318 53.366 6.332 26.422-20.818 78.722-43.222 131.11-43.222s104.688 22.404 131.112 43.222zM1024 448c0 70.692-57.308 128-128 128-48.116 0-89.992-26.57-111.852-65.82-65.792 35.994-145.952 59.246-233.28 64.608l76.382 171.526 146.194-42.2c13.152-37.342 48.718-64.114 90.556-64.114 53.020 0 96 42.98 96 96s-42.98 96-96 96c-36.56 0-68.342-20.442-84.554-50.514l-162.906 47.024c-18.224 5.258-37.538-3.722-45.252-21.052l-103.77-233.026c-85.138-5.996-163.262-29.022-227.636-64.236-21.864 39.25-63.766 65.804-111.882 65.804-70.692 0-128-57.308-128-128 0-52.312 31.402-97.254 76.372-117.102-8.070-24.028-12.372-49.104-12.372-74.898 0-176.73 200.576-320 448-320 247.422 0 448 143.27 448 320 0 25.792-4.3 50.862-12.368 74.886 44.97 19.85 76.368 64.802 76.368 117.114zM864 772c19.882 0 36-16.118 36-36s-16.118-36-36-36-36 16.118-36 36 16.118 36 36 36zM64 448c0 35.29 28.71 64 64 64 25.508 0 47.572-15.004 57.846-36.646-33.448-25.366-61.166-54.626-81.666-86.738-23.524 9.47-40.18 32.512-40.18 59.384zM512 12c-205.45 0-372 109.242-372 244s166.55 244 372 244c205.45 0 372-109.242 372-244s-166.55-244-372-244zM919.82 388.616c-20.5 32.112-48.218 61.372-81.666 86.738 10.276 21.642 32.338 36.646 57.846 36.646 35.29 0 64-28.71 64-64 0-26.872-16.656-49.914-40.18-59.384z" />
<glyph unicode="&#xeaca;" glyph-name="linkedin" d="M372.282 611.004h193.32v-99.093h2.764c26.896 48.24 92.735 99.093 190.848 99.093 204.061 0 241.8-127.030 241.8-292.245v-336.487h-201.511v298.297c0 71.151-1.457 162.669-104.82 162.669-104.951 0-120.965-77.485-120.965-157.502v-303.464h-201.437v628.732zM22.986 611.004h209.577v-628.732h-209.577v628.732zM232.563 785.653c0-57.873-46.916-104.789-104.789-104.789s-104.789 46.916-104.789 104.789c0 57.873 46.916 104.789 104.789 104.789s104.789-46.916 104.789-104.789z" />
</font>
</defs>
</svg>
